<svg width="24" height="24" viewBox="0 0 24 24" fill="none" xmlns="http://www.w3.org/2000/svg">
<path d="M17.7625 14.7196C17.7625 15.771 18.0613 16.1902 18.8425 16.1902C20.5838 16.1902 21.6925 13.9687 21.6925 10.2741C21.6925 4.62703 17.5825 1.92365 12.4513 1.92365C7.1725 1.92365 2.37125 5.46808 2.37125 12.1665C2.37125 18.5645 6.57125 22.0488 13.0213 22.0488C15.2113 22.0488 16.6813 21.8085 18.93 21.0576L19.4125 23.0688C17.1925 23.791 14.82 24 12.9913 24C4.53125 24 0 19.3442 0 12.1652C0 4.92616 5.25125 0 12.4813 0C20.0113 0 24 4.50563 24 10.0325C24 14.7184 22.5313 18.2929 17.9113 18.2929C15.81 18.2929 14.4313 17.4518 14.2513 15.5882C13.7113 17.6608 12.2713 18.2929 10.32 18.2929C7.71 18.2929 5.52 16.2791 5.52 12.2253C5.52 8.14017 7.44125 5.61702 10.8913 5.61702C12.7213 5.61702 13.8613 6.33792 14.3688 7.47935L15.24 5.88736H17.76V14.7196H17.7625ZM14.0738 10.7547C14.0738 9.10388 12.8425 8.41176 11.8225 8.41176C10.7125 8.41176 9.48375 9.31164 9.48375 11.9562C9.48375 14.0588 10.4138 15.2303 11.8225 15.2303C12.8125 15.2303 14.0738 14.5995 14.0738 12.8573V10.7547Z" fill="#00B55A"/>
</svg>
