<svg width="26" height="26" viewBox="0 0 26 26" fill="none" xmlns="http://www.w3.org/2000/svg">
<path d="M13.8571 18.1429H15.5714M21.5714 14.7143V13C21.5714 12.5453 21.3908 12.1093 21.0693 11.7878C20.7478 11.4663 20.3118 11.2857 19.8571 11.2857H2.71429C2.25963 11.2857 1.82359 11.4663 1.5021 11.7878C1.18061 12.1093 1 12.5453 1 13V23.2857C1 23.7404 1.18061 24.1764 1.5021 24.4979C1.82359 24.8194 2.25963 25 2.71429 25H19.8571C20.3118 25 20.7478 24.8194 21.0693 24.4979C21.3908 24.1764 21.5714 23.7404 21.5714 23.2857V21.5714V14.7143ZM21.5714 14.7143H14.7143C13.805 14.7143 12.9329 15.0755 12.2899 15.7185C11.6469 16.3615 11.2857 17.2335 11.2857 18.1429C11.2857 19.0522 11.6469 19.9242 12.2899 20.5672C12.9329 21.2102 13.805 21.5714 14.7143 21.5714H21.5714V14.7143ZM21.5714 14.7143C22.4807 14.7143 23.3528 15.0755 23.9958 15.7185C24.6388 16.3615 25 17.2335 25 18.1429C25 19.0522 24.6388 19.9242 23.9958 20.5672C23.3528 21.2102 22.4807 21.5714 21.5714 21.5714V14.7143ZM6.14286 11.2857V6.14286C6.14286 4.77889 6.68469 3.47078 7.64917 2.50631C8.61364 1.54184 9.92174 1 11.2857 1C12.6497 1 13.9578 1.54184 14.9223 2.50631C15.8867 3.47078 16.4286 4.77889 16.4286 6.14286V11.2857H6.14286ZM20.7143 18.1429H22.4286H20.7143ZM17.2857 18.1429H19H17.2857Z" stroke="#00B55A"/>
</svg>
