<svg width="93" height="93" viewBox="0 0 93 93" fill="none" xmlns="http://www.w3.org/2000/svg">
<circle cx="46.5" cy="46.5" r="46.5" fill="#D2E3DB"/>
<path d="M47 70C40.5894 70 34.5625 67.5035 30.0294 62.9706C25.4965 58.4375 23 52.4106 23 46C23 39.5894 25.4965 33.5625 30.0294 29.0294C34.5625 24.4965 40.5894 22 47 22C53.4106 22 59.4375 24.4965 63.9706 29.0294C68.5035 33.5625 71 39.5894 71 46C71 52.4106 68.5035 58.4375 63.9706 62.9706C59.4375 67.5035 53.4106 70 47 70ZM47 25.75C35.8341 25.75 26.75 34.8341 26.75 46C26.75 57.1659 35.8341 66.25 47 66.25C58.1659 66.25 67.25 57.1659 67.25 46C67.25 34.8341 58.1659 25.75 47 25.75ZM46.9062 47.7812C41.9436 47.7812 37.9062 43.7439 37.9062 38.7812C37.9062 33.8186 41.9436 29.7812 46.9062 29.7812C51.8689 29.7812 55.9062 33.8186 55.9062 38.7812C55.9062 43.7439 51.8689 47.7812 46.9062 47.7812ZM46.9062 33.5312C44.0113 33.5312 41.6562 35.8864 41.6562 38.7812C41.6562 41.6761 44.0113 44.0312 46.9062 44.0312C49.8012 44.0312 52.1562 41.6761 52.1562 38.7812C52.1562 35.8864 49.8012 33.5312 46.9062 33.5312ZM58.7855 58.7005C59.5867 58.0443 59.7042 56.863 59.048 56.0618C56.3967 52.8251 52.4791 50.9688 48.2998 50.9688H46.0752C41.8959 50.9688 37.9783 52.8251 35.3271 56.0619C34.6709 56.863 34.7884 58.0443 35.5896 58.7006C36.3907 59.3568 37.572 59.2392 38.2283 58.4382C40.1642 56.0744 43.0243 54.7188 46.0752 54.7188H48.2998C51.3507 54.7188 54.2108 56.0744 56.1468 58.4381C56.5176 58.8906 57.0557 59.125 57.5984 59.125C58.0165 59.125 58.437 58.986 58.7855 58.7005Z" fill="#00B55A"/>
</svg>
